# xmcd CD database file
#
# Track frame offsets:
#	225
#	19514
#	34185
#	46522
#	57677
#	67892
#	79769
#	90233
#	97915
#	106780
#	124576
#	138468
#	147546
#	164755
#
# Disc length: 2300 seconds
#
# Revision: 0
# Processed by: cddbd v1.5.1PL2 Copyright (c) Steve Scherf et al.
# Submitted via: CDex 1.51
#
DISCID=b208f90e
DTITLE=Bill Wharton and the Ingredients - Sky Blues
DYEAR=2002
DGENRE=Blues
TTITLE0=A Little Rhythm And Blues
TTITLE1=Let's Book
TTITLE2=Come On In My Kitchen
TTITLE3=Down In Georgia
TTITLE4=Sky High
TTITLE5=Blues de Gringo
TTITLE6=I Need A Friend
TTITLE7=Postcard With The Blues
TTITLE8=Don't Want To Know
TTITLE9=Kinda Rough
TTITLE10=The Only Way To Go
TTITLE11=I Don't Want No Whiskey
TTITLE12=Down By The Sea
TTITLE13=Mama's Cookin' (For Viola)
EXTD=YEAR: 2002
EXTT0=
EXTT1=
EXTT2=
EXTT3=
EXTT4=
EXTT5=
EXTT6=
EXTT7=
EXTT8=
EXTT9=
EXTT10=
EXTT11=
EXTT12=
EXTT13=
PLAYORDER=
